<?xml version="1.0" encoding="UTF-8"?>
<!DOCTYPE svg PUBLIC "-//W3C//DTD SVG 1.1//EN" "http://www.w3.org/Graphics/SVG/1.1/DTD/svg11.dtd">
<!-- Creator: CorelDRAW -->
<svg xmlns="http://www.w3.org/2000/svg" xml:space="preserve" width="8.33333in" height="0.833331in" version="1.1" style="shape-rendering:geometricPrecision; text-rendering:geometricPrecision; image-rendering:optimizeQuality; fill-rule:evenodd; clip-rule:evenodd"
viewBox="0 0 8333.33 833.33"
 xmlns:xlink="http://www.w3.org/1999/xlink"
 xmlns:xodm="http://www.corel.com/coreldraw/odm/2003"
 zoomAndPan="magnify">
 <defs>
  <style type="text/css">
   <![CDATA[
    .fil0 {fill:none}
    .fil1 {fill:#C29635;fill-rule:nonzero}
   ]]>
  </style>
 </defs>
 <g id="Layer_x0020_1">
  <metadata id="CorelCorpID_0Corel-Layer"/>
  <rect class="fil0" width="8333.33" height="833.33"/>
  <g id="_1712157467184">
   <g>
    <g>
     <g>
      <path class="fil1" d="M585.4 90.84l263.85 0 0 18.51 -54.52 0 0 654.22 54.52 0 0 18.51 -301.39 0 0 -18.51 54.52 0 0 -617.19 -4.11 0 -148.13 635.7 -123.44 0 -173.84 -638.78 -3.59 0 0 620.27 54 0 0 18.51 -134.23 0 0 -18.51 54.51 0 0 -654.22 -54.51 0 0 -18.51 266.42 0 131.67 508.66 118.3 -508.66zm0 0z"/>
     </g>
    </g>
   </g>
   <g>
    <g>
     <g>
      <path class="fil1" d="M1143.33 791.87c-85.11,0 -148.89,-21.73 -191.33,-65.32 -42.17,-43.85 -63.26,-104.66 -63.26,-182.58 0,-78.17 23.79,-137.96 71.49,-179.5 47.57,-41.41 108.26,-62.24 182.07,-62.24 149.41,0 221.29,75.09 215.5,225.27l-278.76 0 0 38.57c0,64.55 8.23,113.15 24.69,146.07 16.46,32.92 45,49.38 85.89,49.38 76.38,0 126.52,-40.77 150.19,-122.41l18 2.57c-12.73,47.7 -35.37,84.74 -67.89,111.1 -32.66,26.1 -81.52,39.09 -146.59,39.09zm-63.26 -284.42l101.84 0 0 -48.35c0,-53.1 -3.09,-89.49 -9.26,-109.04 -6.17,-19.54 -18.78,-29.32 -37.55,-29.32 -18.9,0 -32.79,10.54 -41.65,31.38 -9,20.57 -13.38,56.32 -13.38,106.98l0 48.35zm0 0z"/>
     </g>
    </g>
   </g>
   <g>
    <g>
     <g>
      <path class="fil1" d="M1630.25 550.14l28.8 0 0 -76.12c0,-62.37 -3.6,-104.15 -10.8,-125.5 -6.94,-21.6 -20.05,-32.41 -39.6,-32.41 -12.08,0 -22.89,3.09 -32.41,9.26 -9.26,6.17 -13.89,14.78 -13.89,25.72 0,11.06 1.8,21.98 5.65,32.91l24.69 0c5.14,14.15 7.72,30.87 7.72,50.41 0,19.28 -8.23,35.87 -24.69,49.89 -16.46,14.15 -37.28,21.09 -62.24,21.09 -56.57,0 -84.86,-27.26 -84.86,-81.78 0,-80.88 68.93,-121.38 206.76,-121.38 78.18,0 132.18,13.37 162.01,40.12 30.09,26.48 45.26,75.35 45.26,146.57l0 200.59c0,33.94 9.39,50.92 28.29,50.92 22.63,0 35.74,-33.69 39.6,-101.32l14.92 1.03c-2.83,57.61 -13.76,97.46 -32.92,119.32 -18.91,21.6 -50.15,32.41 -93.61,32.41 -78.95,0 -124.34,-24.31 -136.3,-73.03 -8.62,25.07 -21.48,43.58 -38.57,55.55 -16.85,11.57 -41.66,17.48 -74.58,17.48 -97.72,0 -146.58,-39.73 -146.58,-119.32 0,-46.55 18.52,-78.7 55.54,-96.18 37.3,-17.49 94.64,-26.23 171.79,-26.23zm-39.6 121.37c0,34.33 1.67,56.45 5.14,66.35 3.72,9.65 10.8,14.39 21.09,14.39 10.28,0 19.8,-8.35 28.8,-25.2 8.87,-16.71 13.37,-39.85 13.37,-69.43l0 -91.55 -7.2 0c-40.89,0 -61.2,29.83 -61.2,89.5l0 15.94zm0 0z"/>
     </g>
    </g>
   </g>
   <g>
    <g>
     <g>
      <path class="fil1" d="M2135.87 577.91c0,68.92 3.6,114.95 10.8,137.84 7.2,22.63 20.32,33.94 39.61,33.94 19.54,0 36.26,-8.49 50.4,-25.72 14.4,-17.1 21.6,-42.44 21.6,-76.12l0 -215.5c0,-28.03 -5.67,-51.94 -16.97,-71.49 -11.06,-19.8 -27.52,-29.83 -49.38,-29.83 -21.6,0 -36.39,14.66 -44.23,43.72 -7.98,28.8 -11.83,79.46 -11.83,151.72l0 51.43zm135.27 204.18l-10.81 -68.91c-22.37,52.46 -67.76,78.69 -136.29,78.69 -56.57,0 -100.68,-20.32 -132.18,-61.21 -31.25,-40.76 -46.8,-101.57 -46.8,-182.58 0,-163.81 65.31,-245.85 195.96,-245.85 57.86,0 95.92,16.2 114.18,48.34l0 -291.1 -60.17 0 0 -18.01 246.87 0 0 722.63 48.35 0 0 18 -219.1 0zm0 0z"/>
     </g>
    </g>
   </g>
   <g>
    <g>
     <g>
     </g>
    </g>
   </g>
   <g>
    <g>
     <g>
      <path class="fil1" d="M3069.13 772.32c32.15,0 52.72,-5.78 61.72,-17.48 8.86,-11.96 13.37,-32.15 13.37,-60.69l0 -191.33 -63.26 0 0 -22.11 284.42 0 0 22.11 -38.57 0 0 278.25 -14.92 0c-11.7,-16.46 -28.54,-24.69 -50.4,-24.69 -9.26,0 -36.89,6.04 -82.8,18.01 -45.65,11.57 -84.61,17.48 -116.76,17.48 -107.36,0 -190.55,-28.93 -249.44,-86.93 -58.63,-57.86 -87.94,-144.78 -87.94,-260.76 0,-116.24 30.59,-205.86 92.06,-268.99 61.72,-63.39 144.53,-95.15 248.42,-95.15 40.12,0 80.37,5.14 120.87,15.43 40.37,10.03 63.9,14.92 70.46,14.92 6.82,0 11.83,-1.29 14.92,-4.11 3.34,-3.09 7.2,-8.23 11.31,-15.43l10.8 0 7.72 214.48 -18 0c-32.27,-64.04 -64.68,-114.31 -97.2,-150.7 -32.67,-36.64 -68.93,-55.03 -109.04,-55.03 -100.81,0 -151.21,98.49 -151.21,295.22l0 78.17c0,98.76 12.34,173.33 37.03,223.73 24.69,50.41 60.18,75.61 106.46,75.61zm0 0z"/>
     </g>
    </g>
   </g>
   <g>
    <g>
     <g>
      <path class="fil1" d="M3737.32 339.78c-24.44,0 -45.78,15.81 -64.3,47.31 -18.25,31.63 -27.26,69.18 -27.26,112.64l0 264.36 69.95 0 0 18 -308.08 0 0 -18 54.52 0 0 -434.08 -54.52 0 0 -18.01 238.13 0 0 94.64c8.49,-33.56 24.94,-59.28 49.38,-77.15 24.3,-18.14 51.94,-27.26 82.8,-27.26 30.87,0 56.06,8.74 75.61,26.23 19.55,17.49 29.32,42.18 29.32,74.07 0,31.89 -7.46,56.44 -22.11,73.55 -14.41,17.23 -36.52,25.71 -66.35,25.71 -29.83,0 -51.94,-9.77 -66.35,-29.31 -14.14,-19.8 -15.81,-47.31 -5.14,-82.29l35.49 0c16.46,-33.56 9.39,-50.41 -21.09,-50.41zm0 0z"/>
     </g>
    </g>
   </g>
   <g>
    <g>
     <g>
      <path class="fil1" d="M4151.24 791.87c-85.11,0 -148.89,-21.73 -191.32,-65.32 -42.18,-43.85 -63.26,-104.66 -63.26,-182.58 0,-78.17 23.8,-137.96 71.49,-179.5 47.58,-41.41 108.26,-62.24 182.07,-62.24 149.41,0 221.29,75.09 215.5,225.27l-278.76 0 0 38.57c0,64.55 8.23,113.15 24.69,146.07 16.46,32.92 45,49.38 85.89,49.38 76.38,0 126.52,-40.77 150.19,-122.41l18 2.57c-12.73,47.7 -35.36,84.74 -67.89,111.1 -32.66,26.1 -81.52,39.09 -146.59,39.09zm-63.26 -284.42l101.84 0 0 -48.35c0,-53.1 -3.09,-89.49 -9.26,-109.04 -6.17,-19.54 -18.77,-29.32 -37.55,-29.32 -18.89,0 -32.79,10.54 -41.65,31.38 -9,20.57 -13.38,56.32 -13.38,106.98l0 48.35zm0 0z"/>
     </g>
    </g>
   </g>
   <g>
    <g>
     <g>
      <path class="fil1" d="M4660.79 791.87c-85.11,0 -148.89,-21.73 -191.33,-65.32 -42.17,-43.85 -63.26,-104.66 -63.26,-182.58 0,-78.17 23.79,-137.96 71.49,-179.5 47.58,-41.41 108.27,-62.24 182.07,-62.24 149.41,0 221.29,75.09 215.5,225.27l-278.76 0 0 38.57c0,64.55 8.23,113.15 24.69,146.07 16.46,32.92 45,49.38 85.89,49.38 76.38,0 126.53,-40.77 150.19,-122.41l18 2.57c-12.73,47.7 -35.37,84.74 -67.89,111.1 -32.65,26.1 -81.52,39.09 -146.58,39.09zm-63.26 -284.42l101.83 0 0 -48.35c0,-53.1 -3.08,-89.49 -9.26,-109.04 -6.17,-19.54 -18.77,-29.32 -37.54,-29.32 -18.9,0 -32.79,10.54 -41.65,31.38 -9,20.57 -13.38,56.32 -13.38,106.98l0 48.35zm0 0z"/>
     </g>
    </g>
   </g>
   <g>
    <g>
     <g>
      <path class="fil1" d="M4912.67 312l238.14 0 0 91.04c10.28,-30.48 26.23,-54.78 47.83,-73.03 21.86,-18.52 55.03,-27.78 99.26,-27.78 101.85,0 152.76,55.03 152.76,165.1l0 296.76 55.54 0 0 18 -279.28 0 0 -18 40.11 0 0 -320.94c0,-39.34 -2.57,-64.8 -7.72,-76.12 -5.14,-11.57 -14.78,-17.49 -28.8,-17.49 -20.97,0 -39.48,13.89 -55.56,41.67 -16.2,27.52 -24.17,61.07 -24.17,100.81l0 272.07 42.17 0 0 18 -280.31 0 0 -18 54.52 0 0 -434.08 -54.52 0 0 -18.01zm0 0z"/>
     </g>
    </g>
   </g>
   <g>
    <g>
     <g>
     </g>
    </g>
   </g>
   <g>
    <g>
     <g>
      <path class="fil1" d="M6113.26 763.57l-72 -213.44 -195.45 0 -76.12 213.44 74.07 0 0 18.51 -150.7 0 0 -18.51 46.29 0 251.51 -678.9 81.26 0 248.93 678.9 45.25 0 0 18.51 -322.99 0 0 -18.51 69.95 0zm-165.61 -493.75l-93.09 258.71 178.98 0 -85.89 -258.71zm0 0z"/>
     </g>
    </g>
   </g>
   <g>
    <g>
     <g>
      <path class="fil1" d="M6920.07 782.09l-224.76 0 -10.81 -72c-10.67,26.49 -26.49,46.68 -47.31,60.7 -20.57,14.02 -51.31,21.09 -92.07,21.09 -102.22,0 -153.26,-54.78 -153.26,-164.58l0 -297.28 -55.03 0 0 -18.01 238.64 0 0 338.94c0,39.48 2.71,65.57 8.23,78.18 5.78,12.34 17.1,18.51 33.94,18.51 16.72,0 31.63,-10.03 44.75,-30.34 13.37,-20.57 20.05,-48.99 20.05,-85.38l0 -301.9 -45.76 0 0 -18.01 229.39 0 0 452.09 54 0 0 18zm0 0z"/>
     </g>
    </g>
   </g>
   <g>
    <g>
     <g>
      <path class="fil1" d="M6989.29 640.65l0 -310.65 -54 0 0 -18.01 54 0 0 -127.55 183.61 -45.26 0 172.81 128.59 0 0 18.01 -128.59 0 0 332.76c0,30.87 3.09,53.49 9.26,67.89 6.44,14.41 19.55,21.6 39.09,21.6 19.8,0 37.16,-9.77 51.94,-29.31 14.66,-19.8 24.43,-46.93 29.31,-81.26l16.46 2.06c-5.14,45.65 -19.55,81.78 -43.2,108.52 -23.66,26.49 -63.01,39.61 -117.78,39.61 -54.52,0 -96.43,-10.8 -125.5,-32.41 -28.8,-21.86 -43.2,-61.46 -43.2,-118.81zm0 0z"/>
     </g>
    </g>
   </g>
   <g>
    <g>
     <g>
      <path class="fil1" d="M7647.87 587.68l0 -83.83c0,-64.04 -3.47,-110.71 -10.29,-139.89 -6.94,-29.45 -22.88,-44.24 -47.83,-44.24 -14.4,0 -26.09,4.11 -34.97,12.34 -9,8.23 -15.43,21.99 -19.55,41.15 -5.92,29.83 -8.74,74.96 -8.74,135.27l0 77.15c0,71.74 2.06,114.95 6.18,129.61 4.37,14.4 8.99,26.23 13.88,35.48 7.2,15.82 21.22,23.67 42.18,23.67 25.71,0 42.43,-14.92 50.4,-44.75 5.79,-20.83 8.74,-68.15 8.74,-141.95zm-61.21 204.19c-82.29,0 -144.52,-21.09 -186.7,-63.26 -41.91,-42.18 -62.75,-102.48 -62.75,-181.04 0,-78.44 22.38,-139 67.38,-181.56 45.26,-42.43 108.66,-63.78 190.3,-63.78 81.52,0 142.47,19.55 182.59,58.63 40.11,39.09 60.17,99.01 60.17,179.5 0,167.67 -83.7,251.51 -251,251.51zm0 0z"/>
     </g>
    </g>
   </g>
   <g>
    <g>
     <g>
      <path class="fil1" d="M7887.83 791.87l0 -176.41 11.83 0c17.11,57.35 40.12,97.47 68.92,120.35 29.07,23.01 65.46,34.46 109.04,34.46 67.13,0 100.81,-21.35 100.81,-64.3 0,-18.51 -8.23,-32.15 -24.69,-41.14 -25.71,-14.66 -58.63,-25.98 -98.74,-33.94 -45,-11.58 -82.55,-27.39 -112.64,-47.32 -36.39,-23.66 -54.52,-61.21 -54.52,-112.64 0,-51.43 15.7,-92.32 47.31,-122.93 31.89,-30.47 74.07,-45.78 126.53,-45.78 32.14,0 65.45,7.59 99.78,22.63 12.6,5.15 22.24,7.72 28.8,7.72 6.43,0 11.95,-2.18 16.46,-6.68 4.76,-4.38 10.41,-12.99 16.97,-25.72l10.8 0 0 151.2 -11.83 0c-33.69,-85.63 -85.63,-128.58 -155.83,-128.58 -30.87,0 -54.01,5.52 -69.44,16.46 -15.17,11.06 -22.63,24.69 -22.63,41.15 0,9.64 2.19,17.36 6.68,23.14 4.76,5.53 8.49,9.65 11.32,12.35 2.7,2.44 6.94,5.14 12.86,8.23 5.78,3.09 10.54,5.52 14.41,7.2 4.11,1.41 10.28,3.47 18.51,6.17 8.23,2.83 14.4,4.5 18.51,5.14 44.49,11.06 76.63,20.57 96.18,28.8 19.8,8.23 38.7,18.39 56.57,30.34 36.26,25.07 54.52,65.33 54.52,120.87 0,55.55 -16.46,97.72 -49.37,126.52 -32.92,28.54 -78.05,42.69 -135.26,42.69 -40.9,0 -80.5,-9.52 -118.81,-28.29 -7.98,-5.4 -14.15,-8.23 -18.52,-8.23 -14.4,0 -28.67,12.21 -42.69,36.52l-11.83 0zm0 0z"/>
     </g>
    </g>
   </g>
  </g>
 </g>
</svg>
