<svg xmlns="http://www.w3.org/2000/svg" xmlns:xlink="http://www.w3.org/1999/xlink" width="500" zoomAndPan="magnify" viewBox="0 0 375 374.999991" height="500" preserveAspectRatio="xMidYMid meet" version="1.0"><defs><g/></defs><g fill="#c29635" fill-opacity="1"><g transform="translate(81.45736, 223.874985)"><g><path d="M 52.1875 -66.671875 L 77.609375 -66.671875 L 77.609375 -64.859375 L 72.375 -64.859375 L 72.375 -1.8125 L 77.609375 -1.8125 L 77.609375 0 L 48.5625 0 L 48.5625 -1.8125 L 53.8125 -1.8125 L 53.8125 -61.328125 L 53.421875 -61.328125 L 39.140625 0 L 27.234375 0 L 10.46875 -61.609375 L 10.09375 -61.609375 L 10.09375 -1.8125 L 15.328125 -1.8125 L 15.328125 0 L 2.375 0 L 2.375 -1.8125 L 7.625 -1.8125 L 7.625 -64.859375 L 2.375 -64.859375 L 2.375 -66.671875 L 28.09375 -66.671875 L 40.765625 -17.625 Z M 52.1875 -66.671875 "/></g></g></g><g fill="#c29635" fill-opacity="1"><g transform="translate(161.447733, 223.874985)"><g><path d="M 37.140625 -0.953125 C 40.253906 -0.953125 42.238281 -1.519531 43.09375 -2.65625 C 43.945312 -3.800781 44.375 -5.738281 44.375 -8.46875 L 44.375 -26.953125 L 38.28125 -26.953125 L 38.28125 -29.046875 L 65.71875 -29.046875 L 65.71875 -26.953125 L 62 -26.953125 L 62 -0.09375 L 60.5625 -0.09375 C 59.425781 -1.675781 57.8125 -2.46875 55.71875 -2.46875 C 54.820312 -2.46875 52.164062 -1.894531 47.75 -0.75 C 43.34375 0.382812 39.582031 0.953125 36.46875 0.953125 C 26.125 0.953125 18.109375 -1.835938 12.421875 -7.421875 C 6.742188 -13.015625 3.90625 -21.410156 3.90625 -32.609375 C 3.90625 -43.816406 6.875 -52.46875 12.8125 -58.5625 C 18.75 -64.664062 26.734375 -67.71875 36.765625 -67.71875 C 40.628906 -67.71875 44.515625 -67.222656 48.421875 -66.234375 C 52.328125 -65.253906 54.597656 -64.765625 55.234375 -64.765625 C 55.867188 -64.765625 56.34375 -64.90625 56.65625 -65.1875 C 56.976562 -65.46875 57.332031 -65.960938 57.71875 -66.671875 L 58.765625 -66.671875 L 59.515625 -46 L 57.8125 -46 C 54.695312 -52.15625 51.566406 -56.992188 48.421875 -60.515625 C 45.285156 -64.046875 41.78125 -65.8125 37.90625 -65.8125 C 28.1875 -65.8125 23.328125 -56.316406 23.328125 -37.328125 L 23.328125 -29.8125 C 23.328125 -20.28125 24.515625 -13.085938 26.890625 -8.234375 C 29.273438 -3.378906 32.691406 -0.953125 37.140625 -0.953125 Z M 37.140625 -0.953125 "/></g></g></g><g fill="#c29635" fill-opacity="1"><g transform="translate(227.439775, 223.874985)"><g><path d="M 41.140625 -1.8125 L 34.1875 -22.375 L 15.328125 -22.375 L 8 -1.8125 L 15.140625 -1.8125 L 15.140625 0 L 0.578125 0 L 0.578125 -1.8125 L 5.046875 -1.8125 L 29.328125 -67.234375 L 37.140625 -67.234375 L 61.140625 -1.8125 L 65.515625 -1.8125 L 65.515625 0 L 34.375 0 L 34.375 -1.8125 Z M 25.140625 -49.421875 L 16.1875 -24.46875 L 33.421875 -24.46875 Z M 25.140625 -49.421875 "/></g></g></g></svg>