<svg xmlns="http://www.w3.org/2000/svg" xmlns:xlink="http://www.w3.org/1999/xlink" width="500" zoomAndPan="magnify" viewBox="0 0 375 374.999991" height="500" preserveAspectRatio="xMidYMid meet" version="1.0"><defs><g/></defs><g fill="#c29635" fill-opacity="1"><g transform="translate(61.21874, 198.749987)"><g><path d="M 16.4375 -21 L 24.453125 -21 L 24.453125 -20.4375 L 22.796875 -20.4375 L 22.796875 -0.5625 L 24.453125 -0.5625 L 24.453125 0 L 15.296875 0 L 15.296875 -0.5625 L 16.953125 -0.5625 L 16.953125 -19.3125 L 16.828125 -19.3125 L 12.328125 0 L 8.578125 0 L 3.296875 -19.40625 L 3.1875 -19.40625 L 3.1875 -0.5625 L 4.828125 -0.5625 L 4.828125 0 L 0.75 0 L 0.75 -0.5625 L 2.40625 -0.5625 L 2.40625 -20.4375 L 0.75 -20.4375 L 0.75 -21 L 8.84375 -21 L 12.84375 -5.546875 Z M 16.4375 -21 "/></g></g></g><g fill="#c29635" fill-opacity="1"><g transform="translate(86.41872, 198.749987)"><g><path d="M 8.1875 0.296875 C 5.601562 0.296875 3.664062 -0.363281 2.375 -1.6875 C 1.09375 -3.019531 0.453125 -4.867188 0.453125 -7.234375 C 0.453125 -9.609375 1.175781 -11.425781 2.625 -12.6875 C 4.070312 -13.945312 5.914062 -14.578125 8.15625 -14.578125 C 12.695312 -14.578125 14.878906 -12.296875 14.703125 -7.734375 L 6.234375 -7.734375 L 6.234375 -6.5625 C 6.234375 -4.601562 6.484375 -3.125 6.984375 -2.125 C 7.484375 -1.125 8.351562 -0.625 9.59375 -0.625 C 11.914062 -0.625 13.4375 -1.863281 14.15625 -4.34375 L 14.703125 -4.265625 C 14.316406 -2.816406 13.628906 -1.691406 12.640625 -0.890625 C 11.648438 -0.0976562 10.164062 0.296875 8.1875 0.296875 Z M 6.265625 -8.34375 L 9.359375 -8.34375 L 9.359375 -9.8125 C 9.359375 -11.425781 9.265625 -12.53125 9.078125 -13.125 C 8.890625 -13.71875 8.507812 -14.015625 7.9375 -14.015625 C 7.363281 -14.015625 6.941406 -13.695312 6.671875 -13.0625 C 6.398438 -12.4375 6.265625 -11.351562 6.265625 -9.8125 Z M 6.265625 -8.34375 "/></g></g></g><g fill="#c29635" fill-opacity="1"><g transform="translate(101.898707, 198.749987)"><g><path d="M 7.5 -7.046875 L 8.375 -7.046875 L 8.375 -9.359375 C 8.375 -11.253906 8.265625 -12.523438 8.046875 -13.171875 C 7.835938 -13.828125 7.4375 -14.15625 6.84375 -14.15625 C 6.476562 -14.15625 6.148438 -14.0625 5.859375 -13.875 C 5.578125 -13.6875 5.4375 -13.425781 5.4375 -13.09375 C 5.4375 -12.757812 5.492188 -12.425781 5.609375 -12.09375 L 6.359375 -12.09375 C 6.515625 -11.664062 6.59375 -11.15625 6.59375 -10.5625 C 6.59375 -9.976562 6.34375 -9.472656 5.84375 -9.046875 C 5.34375 -8.617188 4.710938 -8.40625 3.953125 -8.40625 C 2.234375 -8.40625 1.375 -9.234375 1.375 -10.890625 C 1.375 -13.347656 3.46875 -14.578125 7.65625 -14.578125 C 10.03125 -14.578125 11.671875 -14.171875 12.578125 -13.359375 C 13.492188 -12.554688 13.953125 -11.070312 13.953125 -8.90625 L 13.953125 -2.8125 C 13.953125 -1.78125 14.238281 -1.265625 14.8125 -1.265625 C 15.5 -1.265625 15.898438 -2.289062 16.015625 -4.34375 L 16.46875 -4.3125 C 16.382812 -2.5625 16.050781 -1.351562 15.46875 -0.6875 C 14.894531 -0.03125 13.945312 0.296875 12.625 0.296875 C 10.226562 0.296875 8.847656 -0.441406 8.484375 -1.921875 C 8.222656 -1.160156 7.832031 -0.597656 7.3125 -0.234375 C 6.800781 0.117188 6.046875 0.296875 5.046875 0.296875 C 2.078125 0.296875 0.59375 -0.910156 0.59375 -3.328125 C 0.59375 -4.742188 1.15625 -5.71875 2.28125 -6.25 C 3.414062 -6.78125 5.15625 -7.046875 7.5 -7.046875 Z M 6.296875 -3.359375 C 6.296875 -2.316406 6.347656 -1.644531 6.453125 -1.34375 C 6.566406 -1.050781 6.78125 -0.90625 7.09375 -0.90625 C 7.40625 -0.90625 7.695312 -1.160156 7.96875 -1.671875 C 8.238281 -2.179688 8.375 -2.882812 8.375 -3.78125 L 8.375 -6.5625 L 8.15625 -6.5625 C 6.914062 -6.5625 6.296875 -5.65625 6.296875 -3.84375 Z M 6.296875 -3.359375 "/></g></g></g><g fill="#c29635" fill-opacity="1"><g transform="translate(118.368688, 198.749987)"><g><path d="M 6.390625 -6.203125 C 6.390625 -4.109375 6.5 -2.710938 6.71875 -2.015625 C 6.9375 -1.328125 7.335938 -0.984375 7.921875 -0.984375 C 8.515625 -0.984375 9.023438 -1.242188 9.453125 -1.765625 C 9.890625 -2.285156 10.109375 -3.054688 10.109375 -4.078125 L 10.109375 -10.625 C 10.109375 -11.476562 9.9375 -12.203125 9.59375 -12.796875 C 9.257812 -13.398438 8.757812 -13.703125 8.09375 -13.703125 C 7.4375 -13.703125 6.988281 -13.257812 6.75 -12.375 C 6.507812 -11.5 6.390625 -9.960938 6.390625 -7.765625 Z M 10.5 0 L 10.171875 -2.09375 C 9.492188 -0.5 8.113281 0.296875 6.03125 0.296875 C 4.3125 0.296875 2.972656 -0.320312 2.015625 -1.5625 C 1.066406 -2.800781 0.59375 -4.648438 0.59375 -7.109375 C 0.59375 -12.085938 2.578125 -14.578125 6.546875 -14.578125 C 8.304688 -14.578125 9.460938 -14.085938 10.015625 -13.109375 L 10.015625 -21.953125 L 8.1875 -21.953125 L 8.1875 -22.5 L 15.6875 -22.5 L 15.6875 -0.546875 L 17.15625 -0.546875 L 17.15625 0 Z M 10.5 0 "/></g></g></g><g fill="#c29635" fill-opacity="1"><g transform="translate(136.008667, 198.749987)"><g/></g></g><g fill="#c29635" fill-opacity="1"><g transform="translate(141.408665, 198.749987)"><g><path d="M 11.703125 -0.296875 C 12.679688 -0.296875 13.304688 -0.472656 13.578125 -0.828125 C 13.847656 -1.191406 13.984375 -1.804688 13.984375 -2.671875 L 13.984375 -8.484375 L 12.0625 -8.484375 L 12.0625 -9.15625 L 20.703125 -9.15625 L 20.703125 -8.484375 L 19.53125 -8.484375 L 19.53125 -0.03125 L 19.078125 -0.03125 C 18.722656 -0.53125 18.210938 -0.78125 17.546875 -0.78125 C 17.265625 -0.78125 16.425781 -0.597656 15.03125 -0.234375 C 13.644531 0.117188 12.460938 0.296875 11.484375 0.296875 C 8.222656 0.296875 5.695312 -0.582031 3.90625 -2.34375 C 2.125 -4.101562 1.234375 -6.742188 1.234375 -10.265625 C 1.234375 -13.796875 2.164062 -16.519531 4.03125 -18.4375 C 5.90625 -20.363281 8.421875 -21.328125 11.578125 -21.328125 C 12.796875 -21.328125 14.019531 -21.171875 15.25 -20.859375 C 16.476562 -20.554688 17.191406 -20.40625 17.390625 -20.40625 C 17.597656 -20.40625 17.75 -20.445312 17.84375 -20.53125 C 17.945312 -20.625 18.0625 -20.78125 18.1875 -21 L 18.515625 -21 L 18.75 -14.484375 L 18.203125 -14.484375 C 17.222656 -16.429688 16.238281 -17.957031 15.25 -19.0625 C 14.257812 -20.175781 13.15625 -20.734375 11.9375 -20.734375 C 8.875 -20.734375 7.34375 -17.742188 7.34375 -11.765625 L 7.34375 -9.390625 C 7.34375 -6.390625 7.71875 -4.125 8.46875 -2.59375 C 9.21875 -1.0625 10.296875 -0.296875 11.703125 -0.296875 Z M 11.703125 -0.296875 "/></g></g></g><g fill="#c29635" fill-opacity="1"><g transform="translate(163.098639, 198.749987)"><g><path d="M 10.3125 -13.4375 C 9.570312 -13.4375 8.921875 -12.957031 8.359375 -12 C 7.804688 -11.039062 7.53125 -9.898438 7.53125 -8.578125 L 7.53125 -0.546875 L 9.65625 -0.546875 L 9.65625 0 L 0.296875 0 L 0.296875 -0.546875 L 1.953125 -0.546875 L 1.953125 -13.734375 L 0.296875 -13.734375 L 0.296875 -14.28125 L 7.53125 -14.28125 L 7.53125 -11.40625 C 7.789062 -12.425781 8.289062 -13.207031 9.03125 -13.75 C 9.769531 -14.300781 10.609375 -14.578125 11.546875 -14.578125 C 12.484375 -14.578125 13.25 -14.3125 13.84375 -13.78125 C 14.4375 -13.25 14.734375 -12.5 14.734375 -11.53125 C 14.734375 -10.5625 14.507812 -9.816406 14.0625 -9.296875 C 13.625 -8.773438 12.953125 -8.515625 12.046875 -8.515625 C 11.140625 -8.515625 10.46875 -8.8125 10.03125 -9.40625 C 9.601562 -10.007812 9.550781 -10.84375 9.875 -11.90625 L 10.953125 -11.90625 C 11.453125 -12.925781 11.238281 -13.4375 10.3125 -13.4375 Z M 10.3125 -13.4375 "/></g></g></g><g fill="#c29635" fill-opacity="1"><g transform="translate(177.798631, 198.749987)"><g><path d="M 8.1875 0.296875 C 5.601562 0.296875 3.664062 -0.363281 2.375 -1.6875 C 1.09375 -3.019531 0.453125 -4.867188 0.453125 -7.234375 C 0.453125 -9.609375 1.175781 -11.425781 2.625 -12.6875 C 4.070312 -13.945312 5.914062 -14.578125 8.15625 -14.578125 C 12.695312 -14.578125 14.878906 -12.296875 14.703125 -7.734375 L 6.234375 -7.734375 L 6.234375 -6.5625 C 6.234375 -4.601562 6.484375 -3.125 6.984375 -2.125 C 7.484375 -1.125 8.351562 -0.625 9.59375 -0.625 C 11.914062 -0.625 13.4375 -1.863281 14.15625 -4.34375 L 14.703125 -4.265625 C 14.316406 -2.816406 13.628906 -1.691406 12.640625 -0.890625 C 11.648438 -0.0976562 10.164062 0.296875 8.1875 0.296875 Z M 6.265625 -8.34375 L 9.359375 -8.34375 L 9.359375 -9.8125 C 9.359375 -11.425781 9.265625 -12.53125 9.078125 -13.125 C 8.890625 -13.71875 8.507812 -14.015625 7.9375 -14.015625 C 7.363281 -14.015625 6.941406 -13.695312 6.671875 -13.0625 C 6.398438 -12.4375 6.265625 -11.351562 6.265625 -9.8125 Z M 6.265625 -8.34375 "/></g></g></g><g fill="#c29635" fill-opacity="1"><g transform="translate(193.278618, 198.749987)"><g><path d="M 8.1875 0.296875 C 5.601562 0.296875 3.664062 -0.363281 2.375 -1.6875 C 1.09375 -3.019531 0.453125 -4.867188 0.453125 -7.234375 C 0.453125 -9.609375 1.175781 -11.425781 2.625 -12.6875 C 4.070312 -13.945312 5.914062 -14.578125 8.15625 -14.578125 C 12.695312 -14.578125 14.878906 -12.296875 14.703125 -7.734375 L 6.234375 -7.734375 L 6.234375 -6.5625 C 6.234375 -4.601562 6.484375 -3.125 6.984375 -2.125 C 7.484375 -1.125 8.351562 -0.625 9.59375 -0.625 C 11.914062 -0.625 13.4375 -1.863281 14.15625 -4.34375 L 14.703125 -4.265625 C 14.316406 -2.816406 13.628906 -1.691406 12.640625 -0.890625 C 11.648438 -0.0976562 10.164062 0.296875 8.1875 0.296875 Z M 6.265625 -8.34375 L 9.359375 -8.34375 L 9.359375 -9.8125 C 9.359375 -11.425781 9.265625 -12.53125 9.078125 -13.125 C 8.890625 -13.71875 8.507812 -14.015625 7.9375 -14.015625 C 7.363281 -14.015625 6.941406 -13.695312 6.671875 -13.0625 C 6.398438 -12.4375 6.265625 -11.351562 6.265625 -9.8125 Z M 6.265625 -8.34375 "/></g></g></g><g fill="#c29635" fill-opacity="1"><g transform="translate(208.758605, 198.749987)"><g><path d="M 0.359375 -14.28125 L 7.59375 -14.28125 L 7.59375 -11.515625 C 7.90625 -12.441406 8.390625 -13.179688 9.046875 -13.734375 C 9.710938 -14.296875 10.71875 -14.578125 12.0625 -14.578125 C 15.15625 -14.578125 16.703125 -12.90625 16.703125 -9.5625 L 16.703125 -0.546875 L 18.390625 -0.546875 L 18.390625 0 L 9.90625 0 L 9.90625 -0.546875 L 11.125 -0.546875 L 11.125 -10.296875 C 11.125 -11.492188 11.046875 -12.265625 10.890625 -12.609375 C 10.734375 -12.960938 10.441406 -13.140625 10.015625 -13.140625 C 9.378906 -13.140625 8.816406 -12.71875 8.328125 -11.875 C 7.835938 -11.039062 7.59375 -10.019531 7.59375 -8.8125 L 7.59375 -0.546875 L 8.875 -0.546875 L 8.875 0 L 0.359375 0 L 0.359375 -0.546875 L 2.015625 -0.546875 L 2.015625 -13.734375 L 0.359375 -13.734375 Z M 0.359375 -14.28125 "/></g></g></g><g fill="#c29635" fill-opacity="1"><g transform="translate(227.238592, 198.749987)"><g/></g></g><g fill="#c29635" fill-opacity="1"><g transform="translate(232.63859, 198.749987)"><g><path d="M 12.953125 -0.5625 L 10.765625 -7.046875 L 4.828125 -7.046875 L 2.515625 -0.5625 L 4.765625 -0.5625 L 4.765625 0 L 0.1875 0 L 0.1875 -0.5625 L 1.59375 -0.5625 L 9.234375 -21.1875 L 11.703125 -21.1875 L 19.265625 -0.5625 L 20.640625 -0.5625 L 20.640625 0 L 10.828125 0 L 10.828125 -0.5625 Z M 7.921875 -15.5625 L 5.09375 -7.703125 L 10.53125 -7.703125 Z M 7.921875 -15.5625 "/></g></g></g><g fill="#c29635" fill-opacity="1"><g transform="translate(252.258568, 198.749987)"><g><path d="M 17.84375 0 L 11.015625 0 L 10.6875 -2.1875 C 10.363281 -1.382812 9.882812 -0.769531 9.25 -0.34375 C 8.625 0.0820312 7.691406 0.296875 6.453125 0.296875 C 3.347656 0.296875 1.796875 -1.367188 1.796875 -4.703125 L 1.796875 -13.734375 L 0.125 -13.734375 L 0.125 -14.28125 L 7.375 -14.28125 L 7.375 -3.984375 C 7.375 -2.785156 7.457031 -1.992188 7.625 -1.609375 C 7.800781 -1.234375 8.144531 -1.046875 8.65625 -1.046875 C 9.164062 -1.046875 9.617188 -1.351562 10.015625 -1.96875 C 10.421875 -2.59375 10.625 -3.457031 10.625 -4.5625 L 10.625 -13.734375 L 9.234375 -13.734375 L 9.234375 -14.28125 L 16.203125 -14.28125 L 16.203125 -0.546875 L 17.84375 -0.546875 Z M 17.84375 0 "/></g></g></g><g fill="#c29635" fill-opacity="1"><g transform="translate(270.408553, 198.749987)"><g><path d="M 1.796875 -4.296875 L 1.796875 -13.734375 L 0.15625 -13.734375 L 0.15625 -14.28125 L 1.796875 -14.28125 L 1.796875 -18.15625 L 7.375 -19.53125 L 7.375 -14.28125 L 11.28125 -14.28125 L 11.28125 -13.734375 L 7.375 -13.734375 L 7.375 -3.625 C 7.375 -2.6875 7.46875 -2 7.65625 -1.5625 C 7.851562 -1.125 8.25 -0.90625 8.84375 -0.90625 C 9.445312 -0.90625 9.972656 -1.203125 10.421875 -1.796875 C 10.867188 -2.398438 11.164062 -3.222656 11.3125 -4.265625 L 11.8125 -4.203125 C 11.65625 -2.816406 11.21875 -1.71875 10.5 -0.90625 C 9.78125 -0.101562 8.585938 0.296875 6.921875 0.296875 C 5.265625 0.296875 3.992188 -0.03125 3.109375 -0.6875 C 2.234375 -1.351562 1.796875 -2.554688 1.796875 -4.296875 Z M 1.796875 -4.296875 "/></g></g></g><g fill="#c29635" fill-opacity="1"><g transform="translate(282.228537, 198.749987)"><g><path d="M 9.984375 -5.90625 L 9.984375 -8.453125 C 9.984375 -10.398438 9.878906 -11.816406 9.671875 -12.703125 C 9.460938 -13.597656 8.976562 -14.046875 8.21875 -14.046875 C 7.78125 -14.046875 7.425781 -13.921875 7.15625 -13.671875 C 6.882812 -13.421875 6.6875 -13.003906 6.5625 -12.421875 C 6.382812 -11.515625 6.296875 -10.144531 6.296875 -8.3125 L 6.296875 -5.96875 C 6.296875 -3.789062 6.359375 -2.476562 6.484375 -2.03125 C 6.617188 -1.59375 6.757812 -1.234375 6.90625 -0.953125 C 7.125 -0.472656 7.550781 -0.234375 8.1875 -0.234375 C 8.96875 -0.234375 9.476562 -0.6875 9.71875 -1.59375 C 9.894531 -2.226562 9.984375 -3.664062 9.984375 -5.90625 Z M 8.125 0.296875 C 5.625 0.296875 3.734375 -0.34375 2.453125 -1.625 C 1.179688 -2.90625 0.546875 -4.738281 0.546875 -7.125 C 0.546875 -9.507812 1.226562 -11.347656 2.59375 -12.640625 C 3.96875 -13.929688 5.894531 -14.578125 8.375 -14.578125 C 10.851562 -14.578125 12.703125 -13.984375 13.921875 -12.796875 C 15.140625 -11.609375 15.75 -9.789062 15.75 -7.34375 C 15.75 -2.25 13.207031 0.296875 8.125 0.296875 Z M 8.125 0.296875 "/></g></g></g><g fill="#c29635" fill-opacity="1"><g transform="translate(298.518514, 198.749987)"><g><path d="M 0.984375 0.296875 L 0.984375 -5.0625 L 1.34375 -5.0625 C 1.863281 -3.320312 2.5625 -2.101562 3.4375 -1.40625 C 4.320312 -0.707031 5.425781 -0.359375 6.75 -0.359375 C 8.789062 -0.359375 9.8125 -1.007812 9.8125 -2.3125 C 9.8125 -2.875 9.5625 -3.289062 9.0625 -3.5625 C 8.28125 -4.007812 7.28125 -4.351562 6.0625 -4.59375 C 4.695312 -4.945312 3.554688 -5.425781 2.640625 -6.03125 C 1.535156 -6.75 0.984375 -7.890625 0.984375 -9.453125 C 0.984375 -11.015625 1.460938 -12.257812 2.421875 -13.1875 C 3.390625 -14.113281 4.671875 -14.578125 6.265625 -14.578125 C 7.242188 -14.578125 8.253906 -14.347656 9.296875 -13.890625 C 9.679688 -13.734375 9.972656 -13.65625 10.171875 -13.65625 C 10.367188 -13.65625 10.535156 -13.722656 10.671875 -13.859375 C 10.816406 -13.992188 10.988281 -14.253906 11.1875 -14.640625 L 11.515625 -14.640625 L 11.515625 -10.046875 L 11.15625 -10.046875 C 10.132812 -12.648438 8.554688 -13.953125 6.421875 -13.953125 C 5.484375 -13.953125 4.78125 -13.785156 4.3125 -13.453125 C 3.851562 -13.117188 3.625 -12.703125 3.625 -12.203125 C 3.625 -11.910156 3.691406 -11.675781 3.828125 -11.5 C 3.972656 -11.332031 4.085938 -11.207031 4.171875 -11.125 C 4.253906 -11.050781 4.382812 -10.96875 4.5625 -10.875 C 4.738281 -10.78125 4.882812 -10.707031 5 -10.65625 C 5.125 -10.613281 5.3125 -10.550781 5.5625 -10.46875 C 5.8125 -10.382812 6 -10.332031 6.125 -10.3125 C 7.476562 -9.976562 8.453125 -9.6875 9.046875 -9.4375 C 9.648438 -9.1875 10.222656 -8.878906 10.765625 -8.515625 C 11.867188 -7.753906 12.421875 -6.53125 12.421875 -4.84375 C 12.421875 -3.15625 11.921875 -1.875 10.921875 -1 C 9.921875 -0.132812 8.550781 0.296875 6.8125 0.296875 C 5.570312 0.296875 4.367188 0.0078125 3.203125 -0.5625 C 2.960938 -0.726562 2.773438 -0.8125 2.640625 -0.8125 C 2.203125 -0.8125 1.769531 -0.441406 1.34375 0.296875 Z M 0.984375 0.296875 "/></g></g></g></svg>