<?xml version="1.0" encoding="UTF-8"?>
<!DOCTYPE svg PUBLIC "-//W3C//DTD SVG 1.1//EN" "http://www.w3.org/Graphics/SVG/1.1/DTD/svg11.dtd">
<!-- Creator: CorelDRAW -->
<svg xmlns="http://www.w3.org/2000/svg" xml:space="preserve" width="8.33333in" height="3.33333in" version="1.1" style="shape-rendering:geometricPrecision; text-rendering:geometricPrecision; image-rendering:optimizeQuality; fill-rule:evenodd; clip-rule:evenodd"
viewBox="0 0 8333.33 3333.33"
 xmlns:xlink="http://www.w3.org/1999/xlink"
 xmlns:xodm="http://www.corel.com/coreldraw/odm/2003"
 zoomAndPan="magnify">
 <defs>
  <style type="text/css">
   <![CDATA[
    .fil0 {fill:none}
    .fil1 {fill:#C29635;fill-rule:nonzero}
   ]]>
  </style>
 </defs>
 <g id="Layer_x0020_1">
  <metadata id="CorelCorpID_0Corel-Layer"/>
  <rect class="fil0" width="8333.33" height="3333.33"/>
  <g id="_1712154373216">
   <g>
    <g>
     <g>
      <path class="fil1" d="M2052.17 380.99l981.83 0 0 70 -202.16 0 0 2434.98 202.16 0 0 70 -1121.84 0 0 -70 202.77 0 0 -2298.59 -15.09 0 -551.56 2368.59 -459.84 0 -647.51 -2379.45 -14.48 0 0 2309.45 202.15 0 0 70 -500.26 0 0 -70 202.76 0 0 -2434.98 -202.76 0 0 -70 993.3 0 489.4 1894.28 441.13 -1894.28zm0 0z"/>
     </g>
    </g>
   </g>
   <g>
    <g>
     <g>
      <path class="fil1" d="M4560.39 2919.15c120.24,0 196.89,-21.87 229.93,-65.78 32.89,-44.2 49.48,-119.04 49.48,-224.48l0 -713.9 -235.36 0 0 -80.86 1059.69 0 0 80.86 -143.63 0 0 1037.35 -55.53 0c-43.9,-61.1 -106.2,-91.72 -187.06,-91.72 -34.7,0 -137.29,22.17 -307.77,66.38 -170.17,43.75 -315.46,65.77 -435.7,65.77 -399.49,0 -709.07,-107.71 -928.73,-323.45 -219.36,-216.04 -328.89,-540.24 -328.89,-972.78 0,-432.83 114.66,-767 343.97,-1002.35 229.31,-235.65 537.68,-353.63 925.1,-353.63 149.21,0 299.33,19.16 450.19,57.33 150.86,37.87 238.52,56.72 263.11,56.72 24.44,0 42.85,-5.43 54.92,-16.29 12.37,-10.86 26.1,-29.88 41.03,-57.33l40.43 0 28.97 798.38 -65.78 0c-120.39,-237.76 -241.24,-424.54 -362.68,-560.62 -121.15,-136.37 -256.48,-204.57 -406.13,-204.57 -375.35,0 -563.03,366.75 -563.03,1100.12l0 290.26c0,368.11 45.86,646.01 137.59,833.38 92.03,187.53 224.02,281.21 395.86,281.21zm0 0z"/>
     </g>
    </g>
   </g>
   <g>
    <g>
     <g>
      <path class="fil1" d="M7263.6 2885.96l-268.54 -794.16 -728.39 0 -283.02 794.16 275.78 0 0 70 -562.42 0 0 -70 172.59 0 937.78 -2526.7 301.73 0 926.91 2526.7 168.97 0 0 70 -1202.7 0 0 -70 261.3 0zm-617.95 -1838.76l-345.78 963.74 665.62 0 -319.84 -963.74zm0 0z"/>
     </g>
    </g>
   </g>
  </g>
 </g>
</svg>
